<mxfile host="app.diagrams.net" modified="2023-07-27T20:01:51.737Z" agent="Mozilla/5.0 (Macintosh; Intel Mac OS X 10_15_7) AppleWebKit/605.1.15 (KHTML, like Gecko) Version/15.2 Safari/605.1.15" etag="7oAv5BUKOwW8S4AJdbJI" version="21.6.5" type="device" pages="4">
  <diagram name="Tong quat" id="KDcArEBzNloyeG0T7Ol2">
    <mxGraphModel dx="1242" dy="827" grid="1" gridSize="10" guides="1" tooltips="1" connect="1" arrows="1" fold="1" page="1" pageScale="1" pageWidth="827" pageHeight="1169" math="0" shadow="0">
      <root>
        <mxCell id="0" />
        <mxCell id="1" parent="0" />
        <mxCell id="ko8nlvPDLcnXmPfyicjP-1" value="Khách hàng" style="shape=umlActor;verticalLabelPosition=bottom;verticalAlign=top;html=1;outlineConnect=0;" vertex="1" parent="1">
          <mxGeometry x="48" y="220" width="30" height="60" as="geometry" />
        </mxCell>
        <mxCell id="ko8nlvPDLcnXmPfyicjP-2" value="" style="endArrow=classic;html=1;rounded=0;" edge="1" parent="1">
          <mxGeometry width="50" height="50" relative="1" as="geometry">
            <mxPoint x="62.5" y="310" as="sourcePoint" />
            <mxPoint x="63" y="410" as="targetPoint" />
          </mxGeometry>
        </mxCell>
        <mxCell id="ko8nlvPDLcnXmPfyicjP-4" value="Khách xem" style="shape=umlActor;verticalLabelPosition=bottom;verticalAlign=top;html=1;outlineConnect=0;" vertex="1" parent="1">
          <mxGeometry x="48" y="420" width="30" height="60" as="geometry" />
        </mxCell>
        <mxCell id="ko8nlvPDLcnXmPfyicjP-9" value="Quản trị" style="shape=umlActor;verticalLabelPosition=bottom;verticalAlign=top;html=1;outlineConnect=0;" vertex="1" parent="1">
          <mxGeometry x="760" y="300" width="30" height="60" as="geometry" />
        </mxCell>
        <mxCell id="ko8nlvPDLcnXmPfyicjP-10" value="" style="endArrow=none;html=1;rounded=0;entryX=0;entryY=0.5;entryDx=0;entryDy=0;" edge="1" parent="1">
          <mxGeometry width="50" height="50" relative="1" as="geometry">
            <mxPoint x="78" y="240" as="sourcePoint" />
            <mxPoint x="238" y="60" as="targetPoint" />
          </mxGeometry>
        </mxCell>
        <mxCell id="ko8nlvPDLcnXmPfyicjP-11" value="Mua hàng" style="ellipse;whiteSpace=wrap;html=1;" vertex="1" parent="1">
          <mxGeometry x="240" y="40" width="200" height="40" as="geometry" />
        </mxCell>
        <mxCell id="ko8nlvPDLcnXmPfyicjP-12" value="" style="endArrow=none;html=1;rounded=0;" edge="1" parent="1">
          <mxGeometry width="50" height="50" relative="1" as="geometry">
            <mxPoint x="78" y="240" as="sourcePoint" />
            <mxPoint x="238" y="120" as="targetPoint" />
          </mxGeometry>
        </mxCell>
        <mxCell id="ko8nlvPDLcnXmPfyicjP-13" value="Quản lý TK cá nhân" style="ellipse;whiteSpace=wrap;html=1;" vertex="1" parent="1">
          <mxGeometry x="240" y="100" width="200" height="40" as="geometry" />
        </mxCell>
        <mxCell id="ko8nlvPDLcnXmPfyicjP-14" value="Đăng nhập, Đăng xuất" style="ellipse;whiteSpace=wrap;html=1;" vertex="1" parent="1">
          <mxGeometry x="360" y="160" width="200" height="40" as="geometry" />
        </mxCell>
        <mxCell id="ko8nlvPDLcnXmPfyicjP-15" value="Thống kê" style="ellipse;whiteSpace=wrap;html=1;" vertex="1" parent="1">
          <mxGeometry x="560" y="80" width="200" height="40" as="geometry" />
        </mxCell>
        <mxCell id="ko8nlvPDLcnXmPfyicjP-16" value="" style="endArrow=none;html=1;rounded=0;entryX=0.5;entryY=1;entryDx=0;entryDy=0;" edge="1" parent="1" target="ko8nlvPDLcnXmPfyicjP-15">
          <mxGeometry width="50" height="50" relative="1" as="geometry">
            <mxPoint x="760" y="320" as="sourcePoint" />
            <mxPoint x="810" y="270" as="targetPoint" />
          </mxGeometry>
        </mxCell>
        <mxCell id="ko8nlvPDLcnXmPfyicjP-17" value="" style="endArrow=none;html=1;rounded=0;entryX=1;entryY=0.5;entryDx=0;entryDy=0;" edge="1" parent="1" target="ko8nlvPDLcnXmPfyicjP-14">
          <mxGeometry width="50" height="50" relative="1" as="geometry">
            <mxPoint x="760" y="320" as="sourcePoint" />
            <mxPoint x="810" y="270" as="targetPoint" />
          </mxGeometry>
        </mxCell>
        <mxCell id="ko8nlvPDLcnXmPfyicjP-18" value="" style="endArrow=none;html=1;rounded=0;entryX=0;entryY=0.5;entryDx=0;entryDy=0;exitX=1;exitY=0.3333333333333333;exitDx=0;exitDy=0;exitPerimeter=0;" edge="1" parent="1" source="ko8nlvPDLcnXmPfyicjP-1">
          <mxGeometry width="50" height="50" relative="1" as="geometry">
            <mxPoint x="78" y="200" as="sourcePoint" />
            <mxPoint x="358" y="180" as="targetPoint" />
          </mxGeometry>
        </mxCell>
        <mxCell id="ko8nlvPDLcnXmPfyicjP-20" value="Tìm kiếm" style="ellipse;whiteSpace=wrap;html=1;" vertex="1" parent="1">
          <mxGeometry x="360" y="220" width="200" height="40" as="geometry" />
        </mxCell>
        <mxCell id="ko8nlvPDLcnXmPfyicjP-21" value="Đăng ký" style="ellipse;whiteSpace=wrap;html=1;" vertex="1" parent="1">
          <mxGeometry x="240" y="340" width="200" height="40" as="geometry" />
        </mxCell>
        <mxCell id="ko8nlvPDLcnXmPfyicjP-22" value="Xem sản phẩm" style="ellipse;whiteSpace=wrap;html=1;" vertex="1" parent="1">
          <mxGeometry x="240" y="420" width="200" height="40" as="geometry" />
        </mxCell>
        <mxCell id="ko8nlvPDLcnXmPfyicjP-23" value="Mua hàng" style="ellipse;whiteSpace=wrap;html=1;" vertex="1" parent="1">
          <mxGeometry x="240" y="500" width="200" height="40" as="geometry" />
        </mxCell>
        <mxCell id="ko8nlvPDLcnXmPfyicjP-24" value="" style="endArrow=none;html=1;rounded=0;entryX=0;entryY=0.5;entryDx=0;entryDy=0;" edge="1" parent="1" target="ko8nlvPDLcnXmPfyicjP-21">
          <mxGeometry width="50" height="50" relative="1" as="geometry">
            <mxPoint x="80" y="440" as="sourcePoint" />
            <mxPoint x="130" y="390" as="targetPoint" />
          </mxGeometry>
        </mxCell>
        <mxCell id="ko8nlvPDLcnXmPfyicjP-25" value="" style="endArrow=none;html=1;rounded=0;entryX=0;entryY=0.5;entryDx=0;entryDy=0;" edge="1" parent="1" target="ko8nlvPDLcnXmPfyicjP-22">
          <mxGeometry width="50" height="50" relative="1" as="geometry">
            <mxPoint x="80" y="440" as="sourcePoint" />
            <mxPoint x="230" y="440" as="targetPoint" />
          </mxGeometry>
        </mxCell>
        <mxCell id="ko8nlvPDLcnXmPfyicjP-26" value="" style="endArrow=none;html=1;rounded=0;entryX=0;entryY=0.5;entryDx=0;entryDy=0;" edge="1" parent="1" target="ko8nlvPDLcnXmPfyicjP-23">
          <mxGeometry width="50" height="50" relative="1" as="geometry">
            <mxPoint x="78" y="440" as="sourcePoint" />
            <mxPoint x="128" y="390" as="targetPoint" />
          </mxGeometry>
        </mxCell>
        <mxCell id="ko8nlvPDLcnXmPfyicjP-27" value="" style="endArrow=none;html=1;rounded=0;entryX=0;entryY=0.5;entryDx=0;entryDy=0;" edge="1" parent="1" target="ko8nlvPDLcnXmPfyicjP-20">
          <mxGeometry width="50" height="50" relative="1" as="geometry">
            <mxPoint x="80" y="440" as="sourcePoint" />
            <mxPoint x="130" y="390" as="targetPoint" />
          </mxGeometry>
        </mxCell>
        <mxCell id="ko8nlvPDLcnXmPfyicjP-28" value="" style="endArrow=none;html=1;rounded=0;entryX=1;entryY=0.5;entryDx=0;entryDy=0;" edge="1" parent="1" target="ko8nlvPDLcnXmPfyicjP-20">
          <mxGeometry width="50" height="50" relative="1" as="geometry">
            <mxPoint x="760" y="320" as="sourcePoint" />
            <mxPoint x="810" y="270" as="targetPoint" />
          </mxGeometry>
        </mxCell>
        <mxCell id="ko8nlvPDLcnXmPfyicjP-29" value="Quản lý khách hàng" style="ellipse;whiteSpace=wrap;html=1;" vertex="1" parent="1">
          <mxGeometry x="440" y="300" width="200" height="40" as="geometry" />
        </mxCell>
        <mxCell id="ko8nlvPDLcnXmPfyicjP-30" value="Quản lý sản phẩm" style="ellipse;whiteSpace=wrap;html=1;" vertex="1" parent="1">
          <mxGeometry x="440" y="380" width="200" height="40" as="geometry" />
        </mxCell>
        <mxCell id="ko8nlvPDLcnXmPfyicjP-31" value="Quản lý loại sản phẩm" style="ellipse;whiteSpace=wrap;html=1;" vertex="1" parent="1">
          <mxGeometry x="440" y="460" width="200" height="40" as="geometry" />
        </mxCell>
        <mxCell id="ko8nlvPDLcnXmPfyicjP-32" value="Quản lý đơn hàng" style="ellipse;whiteSpace=wrap;html=1;" vertex="1" parent="1">
          <mxGeometry x="440" y="540" width="200" height="40" as="geometry" />
        </mxCell>
        <mxCell id="ko8nlvPDLcnXmPfyicjP-33" value="" style="endArrow=none;html=1;rounded=0;entryX=1;entryY=0.5;entryDx=0;entryDy=0;" edge="1" parent="1" target="ko8nlvPDLcnXmPfyicjP-29">
          <mxGeometry width="50" height="50" relative="1" as="geometry">
            <mxPoint x="760" y="320" as="sourcePoint" />
            <mxPoint x="810" y="270" as="targetPoint" />
          </mxGeometry>
        </mxCell>
        <mxCell id="ko8nlvPDLcnXmPfyicjP-35" value="" style="endArrow=none;html=1;rounded=0;entryX=1;entryY=0.5;entryDx=0;entryDy=0;" edge="1" parent="1" target="ko8nlvPDLcnXmPfyicjP-30">
          <mxGeometry width="50" height="50" relative="1" as="geometry">
            <mxPoint x="760" y="320" as="sourcePoint" />
            <mxPoint x="650" y="330" as="targetPoint" />
          </mxGeometry>
        </mxCell>
        <mxCell id="ko8nlvPDLcnXmPfyicjP-36" value="" style="endArrow=none;html=1;rounded=0;entryX=1;entryY=0.5;entryDx=0;entryDy=0;" edge="1" parent="1" target="ko8nlvPDLcnXmPfyicjP-31">
          <mxGeometry width="50" height="50" relative="1" as="geometry">
            <mxPoint x="760" y="320" as="sourcePoint" />
            <mxPoint x="650" y="410" as="targetPoint" />
          </mxGeometry>
        </mxCell>
        <mxCell id="ko8nlvPDLcnXmPfyicjP-37" value="" style="endArrow=none;html=1;rounded=0;entryX=1;entryY=0.5;entryDx=0;entryDy=0;" edge="1" parent="1" target="ko8nlvPDLcnXmPfyicjP-32">
          <mxGeometry width="50" height="50" relative="1" as="geometry">
            <mxPoint x="760" y="320" as="sourcePoint" />
            <mxPoint x="660" y="420" as="targetPoint" />
          </mxGeometry>
        </mxCell>
      </root>
    </mxGraphModel>
  </diagram>
  <diagram id="kOfxL8k8121z8w6GwPz-" name="Quan tri">
    <mxGraphModel dx="1242" dy="827" grid="1" gridSize="10" guides="1" tooltips="1" connect="1" arrows="1" fold="1" page="1" pageScale="1" pageWidth="827" pageHeight="1169" math="0" shadow="0">
      <root>
        <mxCell id="0" />
        <mxCell id="1" parent="0" />
        <mxCell id="qHCSjhySUqU8QhIjOKXc-1" value="Quản trị" style="shape=umlActor;verticalLabelPosition=bottom;verticalAlign=top;html=1;outlineConnect=0;" vertex="1" parent="1">
          <mxGeometry x="90" y="300" width="30" height="60" as="geometry" />
        </mxCell>
        <mxCell id="qHCSjhySUqU8QhIjOKXc-2" value="Đăng nhập, Đăng xuất" style="ellipse;whiteSpace=wrap;html=1;" vertex="1" parent="1">
          <mxGeometry x="440" y="60" width="200" height="40" as="geometry" />
        </mxCell>
        <mxCell id="qHCSjhySUqU8QhIjOKXc-3" value="Thống kê" style="ellipse;whiteSpace=wrap;html=1;" vertex="1" parent="1">
          <mxGeometry x="440" y="140" width="200" height="40" as="geometry" />
        </mxCell>
        <mxCell id="qHCSjhySUqU8QhIjOKXc-4" value="" style="endArrow=none;html=1;rounded=0;entryX=0;entryY=0.5;entryDx=0;entryDy=0;" edge="1" parent="1" target="qHCSjhySUqU8QhIjOKXc-3">
          <mxGeometry width="50" height="50" relative="1" as="geometry">
            <mxPoint x="120" y="320" as="sourcePoint" />
            <mxPoint x="810" y="270" as="targetPoint" />
          </mxGeometry>
        </mxCell>
        <mxCell id="qHCSjhySUqU8QhIjOKXc-5" value="" style="endArrow=none;html=1;rounded=0;entryX=0;entryY=0.5;entryDx=0;entryDy=0;" edge="1" parent="1" target="qHCSjhySUqU8QhIjOKXc-2">
          <mxGeometry width="50" height="50" relative="1" as="geometry">
            <mxPoint x="120" y="320" as="sourcePoint" />
            <mxPoint x="810" y="270" as="targetPoint" />
          </mxGeometry>
        </mxCell>
        <mxCell id="qHCSjhySUqU8QhIjOKXc-6" value="Tìm kiếm" style="ellipse;whiteSpace=wrap;html=1;" vertex="1" parent="1">
          <mxGeometry x="440" y="220" width="200" height="40" as="geometry" />
        </mxCell>
        <mxCell id="qHCSjhySUqU8QhIjOKXc-7" value="" style="endArrow=none;html=1;rounded=0;entryX=0;entryY=0.5;entryDx=0;entryDy=0;" edge="1" parent="1" target="qHCSjhySUqU8QhIjOKXc-6">
          <mxGeometry width="50" height="50" relative="1" as="geometry">
            <mxPoint x="120" y="320" as="sourcePoint" />
            <mxPoint x="810" y="270" as="targetPoint" />
          </mxGeometry>
        </mxCell>
        <mxCell id="qHCSjhySUqU8QhIjOKXc-8" value="Quản lý khách hàng" style="ellipse;whiteSpace=wrap;html=1;" vertex="1" parent="1">
          <mxGeometry x="440" y="300" width="200" height="40" as="geometry" />
        </mxCell>
        <mxCell id="qHCSjhySUqU8QhIjOKXc-9" value="Quản lý sản phẩm" style="ellipse;whiteSpace=wrap;html=1;" vertex="1" parent="1">
          <mxGeometry x="440" y="380" width="200" height="40" as="geometry" />
        </mxCell>
        <mxCell id="qHCSjhySUqU8QhIjOKXc-10" value="Quản lý loại sản phẩm" style="ellipse;whiteSpace=wrap;html=1;" vertex="1" parent="1">
          <mxGeometry x="440" y="460" width="200" height="40" as="geometry" />
        </mxCell>
        <mxCell id="qHCSjhySUqU8QhIjOKXc-11" value="Quản lý đơn hàng" style="ellipse;whiteSpace=wrap;html=1;" vertex="1" parent="1">
          <mxGeometry x="440" y="540" width="200" height="40" as="geometry" />
        </mxCell>
        <mxCell id="qHCSjhySUqU8QhIjOKXc-12" value="" style="endArrow=none;html=1;rounded=0;exitX=1;exitY=0.3333333333333333;exitDx=0;exitDy=0;exitPerimeter=0;" edge="1" parent="1" source="qHCSjhySUqU8QhIjOKXc-1">
          <mxGeometry width="50" height="50" relative="1" as="geometry">
            <mxPoint x="760" y="320" as="sourcePoint" />
            <mxPoint x="440" y="320" as="targetPoint" />
          </mxGeometry>
        </mxCell>
        <mxCell id="qHCSjhySUqU8QhIjOKXc-13" value="" style="endArrow=none;html=1;rounded=0;entryX=0;entryY=0.5;entryDx=0;entryDy=0;" edge="1" parent="1" target="qHCSjhySUqU8QhIjOKXc-9">
          <mxGeometry width="50" height="50" relative="1" as="geometry">
            <mxPoint x="120" y="320" as="sourcePoint" />
            <mxPoint x="650" y="330" as="targetPoint" />
          </mxGeometry>
        </mxCell>
        <mxCell id="qHCSjhySUqU8QhIjOKXc-14" value="" style="endArrow=none;html=1;rounded=0;entryX=0;entryY=0.5;entryDx=0;entryDy=0;" edge="1" parent="1" target="qHCSjhySUqU8QhIjOKXc-10">
          <mxGeometry width="50" height="50" relative="1" as="geometry">
            <mxPoint x="120" y="320" as="sourcePoint" />
            <mxPoint x="650" y="410" as="targetPoint" />
          </mxGeometry>
        </mxCell>
        <mxCell id="qHCSjhySUqU8QhIjOKXc-15" value="" style="endArrow=none;html=1;rounded=0;entryX=0;entryY=0.5;entryDx=0;entryDy=0;" edge="1" parent="1" target="qHCSjhySUqU8QhIjOKXc-11">
          <mxGeometry width="50" height="50" relative="1" as="geometry">
            <mxPoint x="120" y="320" as="sourcePoint" />
            <mxPoint x="660" y="420" as="targetPoint" />
          </mxGeometry>
        </mxCell>
      </root>
    </mxGraphModel>
  </diagram>
  <diagram id="YLPzBK1BF5T6Swi8qn4V" name="Khach hang">
    <mxGraphModel dx="1242" dy="827" grid="1" gridSize="10" guides="1" tooltips="1" connect="1" arrows="1" fold="1" page="1" pageScale="1" pageWidth="827" pageHeight="1169" math="0" shadow="0">
      <root>
        <mxCell id="0" />
        <mxCell id="1" parent="0" />
        <mxCell id="N3yQKXkswgoLwSjcVd0h-1" value="Khách hàng" style="shape=umlActor;verticalLabelPosition=bottom;verticalAlign=top;html=1;outlineConnect=0;" vertex="1" parent="1">
          <mxGeometry x="130" y="380" width="30" height="60" as="geometry" />
        </mxCell>
        <mxCell id="N3yQKXkswgoLwSjcVd0h-7" value="Quản lý TK cá nhân" style="ellipse;whiteSpace=wrap;html=1;" vertex="1" parent="1">
          <mxGeometry x="330" y="339" width="200" height="40" as="geometry" />
        </mxCell>
        <mxCell id="N3yQKXkswgoLwSjcVd0h-8" value="Đăng nhập, Đăng xuất" style="ellipse;whiteSpace=wrap;html=1;" vertex="1" parent="1">
          <mxGeometry x="330" y="259" width="200" height="40" as="geometry" />
        </mxCell>
        <mxCell id="N3yQKXkswgoLwSjcVd0h-9" value="" style="endArrow=none;html=1;rounded=0;entryX=0;entryY=0.5;entryDx=0;entryDy=0;exitX=1;exitY=0.3333333333333333;exitDx=0;exitDy=0;exitPerimeter=0;" edge="1" parent="1" source="N3yQKXkswgoLwSjcVd0h-1" target="N3yQKXkswgoLwSjcVd0h-8">
          <mxGeometry width="50" height="50" relative="1" as="geometry">
            <mxPoint x="168" y="200" as="sourcePoint" />
            <mxPoint x="448" y="180" as="targetPoint" />
          </mxGeometry>
        </mxCell>
        <mxCell id="N3yQKXkswgoLwSjcVd0h-10" value="Tìm kiếm" style="ellipse;whiteSpace=wrap;html=1;" vertex="1" parent="1">
          <mxGeometry x="330" y="419" width="200" height="40" as="geometry" />
        </mxCell>
        <mxCell id="N3yQKXkswgoLwSjcVd0h-11" value="Đăng ký" style="ellipse;whiteSpace=wrap;html=1;" vertex="1" parent="1">
          <mxGeometry x="330" y="179" width="200" height="40" as="geometry" />
        </mxCell>
        <mxCell id="N3yQKXkswgoLwSjcVd0h-12" value="Xem sản phẩm" style="ellipse;whiteSpace=wrap;html=1;" vertex="1" parent="1">
          <mxGeometry x="330" y="499" width="200" height="40" as="geometry" />
        </mxCell>
        <mxCell id="N3yQKXkswgoLwSjcVd0h-13" value="Mua hàng" style="ellipse;whiteSpace=wrap;html=1;" vertex="1" parent="1">
          <mxGeometry x="330" y="579" width="200" height="40" as="geometry" />
        </mxCell>
        <mxCell id="N3yQKXkswgoLwSjcVd0h-14" value="" style="endArrow=none;html=1;rounded=0;entryX=0;entryY=0.5;entryDx=0;entryDy=0;exitX=1;exitY=0.3333333333333333;exitDx=0;exitDy=0;exitPerimeter=0;" edge="1" parent="1" target="N3yQKXkswgoLwSjcVd0h-11" source="N3yQKXkswgoLwSjcVd0h-1">
          <mxGeometry width="50" height="50" relative="1" as="geometry">
            <mxPoint x="170" y="440" as="sourcePoint" />
            <mxPoint x="220" y="390" as="targetPoint" />
          </mxGeometry>
        </mxCell>
        <mxCell id="N3yQKXkswgoLwSjcVd0h-15" value="" style="endArrow=none;html=1;rounded=0;entryX=0;entryY=0.5;entryDx=0;entryDy=0;" edge="1" parent="1" target="N3yQKXkswgoLwSjcVd0h-12">
          <mxGeometry width="50" height="50" relative="1" as="geometry">
            <mxPoint x="160" y="400" as="sourcePoint" />
            <mxPoint x="320" y="440" as="targetPoint" />
          </mxGeometry>
        </mxCell>
        <mxCell id="N3yQKXkswgoLwSjcVd0h-16" value="" style="endArrow=none;html=1;rounded=0;entryX=0;entryY=0.5;entryDx=0;entryDy=0;exitX=1;exitY=0.3333333333333333;exitDx=0;exitDy=0;exitPerimeter=0;" edge="1" parent="1" target="N3yQKXkswgoLwSjcVd0h-13" source="N3yQKXkswgoLwSjcVd0h-1">
          <mxGeometry width="50" height="50" relative="1" as="geometry">
            <mxPoint x="168" y="440" as="sourcePoint" />
            <mxPoint x="218" y="390" as="targetPoint" />
          </mxGeometry>
        </mxCell>
        <mxCell id="N3yQKXkswgoLwSjcVd0h-17" value="" style="endArrow=none;html=1;rounded=0;entryX=0;entryY=0.5;entryDx=0;entryDy=0;" edge="1" parent="1" target="N3yQKXkswgoLwSjcVd0h-10">
          <mxGeometry width="50" height="50" relative="1" as="geometry">
            <mxPoint x="160" y="400" as="sourcePoint" />
            <mxPoint x="220" y="390" as="targetPoint" />
          </mxGeometry>
        </mxCell>
        <mxCell id="N3yQKXkswgoLwSjcVd0h-19" value="" style="endArrow=none;html=1;rounded=0;entryX=0;entryY=0.5;entryDx=0;entryDy=0;" edge="1" parent="1" target="N3yQKXkswgoLwSjcVd0h-7">
          <mxGeometry width="50" height="50" relative="1" as="geometry">
            <mxPoint x="160" y="400" as="sourcePoint" />
            <mxPoint x="210" y="350" as="targetPoint" />
          </mxGeometry>
        </mxCell>
      </root>
    </mxGraphModel>
  </diagram>
  <diagram id="w1XvwDOSnb_uDgl9FD-Y" name="Khach xem">
    <mxGraphModel dx="1242" dy="827" grid="1" gridSize="10" guides="1" tooltips="1" connect="1" arrows="1" fold="1" page="1" pageScale="1" pageWidth="827" pageHeight="1169" math="0" shadow="0">
      <root>
        <mxCell id="0" />
        <mxCell id="1" parent="0" />
        <mxCell id="DtIDRT9bIxEvm0HOE1Sw-1" value="Khách xem" style="shape=umlActor;verticalLabelPosition=bottom;verticalAlign=top;html=1;outlineConnect=0;" vertex="1" parent="1">
          <mxGeometry x="130" y="380" width="30" height="60" as="geometry" />
        </mxCell>
        <mxCell id="DtIDRT9bIxEvm0HOE1Sw-5" value="Tìm kiếm" style="ellipse;whiteSpace=wrap;html=1;" vertex="1" parent="1">
          <mxGeometry x="330" y="340" width="200" height="40" as="geometry" />
        </mxCell>
        <mxCell id="DtIDRT9bIxEvm0HOE1Sw-6" value="Đăng ký" style="ellipse;whiteSpace=wrap;html=1;" vertex="1" parent="1">
          <mxGeometry x="330" y="261" width="200" height="40" as="geometry" />
        </mxCell>
        <mxCell id="DtIDRT9bIxEvm0HOE1Sw-7" value="Xem sản phẩm" style="ellipse;whiteSpace=wrap;html=1;" vertex="1" parent="1">
          <mxGeometry x="330" y="420" width="200" height="40" as="geometry" />
        </mxCell>
        <mxCell id="DtIDRT9bIxEvm0HOE1Sw-8" value="Mua hàng" style="ellipse;whiteSpace=wrap;html=1;" vertex="1" parent="1">
          <mxGeometry x="330" y="500" width="200" height="40" as="geometry" />
        </mxCell>
        <mxCell id="DtIDRT9bIxEvm0HOE1Sw-9" value="" style="endArrow=none;html=1;rounded=0;entryX=0;entryY=0.5;entryDx=0;entryDy=0;exitX=1;exitY=0.3333333333333333;exitDx=0;exitDy=0;exitPerimeter=0;" edge="1" parent="1" source="DtIDRT9bIxEvm0HOE1Sw-1" target="DtIDRT9bIxEvm0HOE1Sw-6">
          <mxGeometry width="50" height="50" relative="1" as="geometry">
            <mxPoint x="170" y="440" as="sourcePoint" />
            <mxPoint x="220" y="390" as="targetPoint" />
          </mxGeometry>
        </mxCell>
        <mxCell id="DtIDRT9bIxEvm0HOE1Sw-10" value="" style="endArrow=none;html=1;rounded=0;entryX=0;entryY=0.5;entryDx=0;entryDy=0;" edge="1" parent="1" target="DtIDRT9bIxEvm0HOE1Sw-7">
          <mxGeometry width="50" height="50" relative="1" as="geometry">
            <mxPoint x="160" y="400" as="sourcePoint" />
            <mxPoint x="320" y="440" as="targetPoint" />
          </mxGeometry>
        </mxCell>
        <mxCell id="DtIDRT9bIxEvm0HOE1Sw-11" value="" style="endArrow=none;html=1;rounded=0;entryX=0;entryY=0.5;entryDx=0;entryDy=0;exitX=1;exitY=0.3333333333333333;exitDx=0;exitDy=0;exitPerimeter=0;" edge="1" parent="1" source="DtIDRT9bIxEvm0HOE1Sw-1" target="DtIDRT9bIxEvm0HOE1Sw-8">
          <mxGeometry width="50" height="50" relative="1" as="geometry">
            <mxPoint x="168" y="440" as="sourcePoint" />
            <mxPoint x="218" y="390" as="targetPoint" />
          </mxGeometry>
        </mxCell>
        <mxCell id="DtIDRT9bIxEvm0HOE1Sw-12" value="" style="endArrow=none;html=1;rounded=0;entryX=0;entryY=0.5;entryDx=0;entryDy=0;" edge="1" parent="1" target="DtIDRT9bIxEvm0HOE1Sw-5">
          <mxGeometry width="50" height="50" relative="1" as="geometry">
            <mxPoint x="160" y="400" as="sourcePoint" />
            <mxPoint x="220" y="390" as="targetPoint" />
          </mxGeometry>
        </mxCell>
      </root>
    </mxGraphModel>
  </diagram>
</mxfile>
